<svg xmlns="http://www.w3.org/2000/svg" xmlns:xlink="http://www.w3.org/1999/xlink" version="1.1" x="0px" y="0px" viewBox="0 0 185 185" style="enable-background:new 0 0 185 185;" xml:space="preserve"><g><path d="M163.9,101.4c-0.8-1.6-3.2-2.4-5.3-2.5c-0.2-1.3-0.6-2.6-1.2-3.9c-0.4-1-0.8-0.7-1.4,0c1.3-2,1.9-4.5,1.6-7.7   c-0.1-0.5-0.3-0.9-0.7-1.1c-0.4-0.6-0.9-1.2-1.5-1.7c2.4-1.3,4-2.7,4.9-4.4c0.8-1.5,1-3.2,0.6-4.9c-0.1-2.3-1.4-15.8-12.1-25.1   c-8.3-7.3-20.1-10.1-35-8.5c-32,3.5-36.4,27.3-36.9,30.2c-0.7,2.5-0.6,9.4,1.2,11.8c1.7,2.3,3.6,3.8,5.9,4.9   c-0.1,1.6-0.2,3.2-0.1,4.7c-0.4-0.4-0.8-0.8-1.2-1c-1.1-0.7-1.8-0.4-3.1-0.5c-3.7-0.2-3.1-1.7-5.5-2.7c-1-0.4-2.8,0.1-3.9-0.3   c1.5-3.3-0.2-10.5-4.7-9.4c-0.7,0.2-1.2,0.7-1.7,1.2c-1.2,1.1-1.1,1.9-2.7,2.4C60.6,83,59.8,82.9,59,83c-3.6,0.6-4.4,3.8-7.8,4.3   c-0.1,0-0.2,0-0.3,0c-0.5-0.9-1.2-1-2.3-1.5c-2.5-1.2-2.7-3.6-5.5-4.3c-1.6-0.4-2.8-0.8-4.2-1.8c-0.7-0.5-1.2-1-2.1-1.2   c-2.4-0.4-4.1,2.3-5.6,3.8c-0.3,0.3-0.4,0.6-0.4,0.8c-0.1,0.1-0.1,0.2-0.2,0.3c-0.5,1.4,0.2,2.8,1.5,3.4c0.8,0.4,1.9,0.1,2.6,0.5   c0.5,0.3,0.6,1.1,1.1,1.6c1,1.1,2.4,0.9,3.6,1.5c0.8,0.4,1.1,1.3,1.6,2.2c-1.4,1.2-2.4,3.5-3.8,3.9c-0.1,0-0.3,0.1-0.4,0.2   c-0.5-0.4-0.9-0.9-1.5-1.5c-1.3-1.4-1.9-1.7-3.6-2.3c-0.6,0.1-1.3,0.1-1.9,0.1c-0.7-0.4-1.3-0.9-1.9-1.4c-0.6-0.4-1.2-1-1.9-1.2   c-2.9-0.6-4.2,2.5-5.4,4.4c0,0,0,0,0,0c-0.6,0.3-1.1,0.9-0.9,1.7c0.4,1.7,2.3,3.3,3.9,4.4l-1.2,0.5c-0.7-0.5-1.3-0.8-2.5-0.9   c-1-0.1-2,0.1-3.1-0.1c-0.6-0.1-1.1-0.6-1.8-0.6c-2.9,0.1-3.5,3.2-4.4,5.4c-0.1,0.1-0.1,0.3-0.1,0.4c-0.1,0.2-0.2,0.4-0.2,0.7   c-6.3,3.9-8.6,9-8.6,12.5c0,17.2,46.5,26.5,90.2,26.5c42.9,0,89.6-10.1,90.2-26.4C182.5,108.8,177.7,104,163.9,101.4z M155.8,96.9   c0,0-0.1,0.5-0.6,1.3c-0.2,0.4-0.5,0.8-0.9,1.3c-0.4,0.5-0.9,1-1.5,1.5c-0.6,0.5-1.2,1-2,1.5c-0.7,0.5-1.5,1-2.4,1.4   c-1.7,0.9-3.6,1.6-5.6,2.2c-3.9,1.2-7.9,1.9-10.9,2.2c-3,0.3-5,0.3-5,0.3s0.5-0.1,1.4-0.2c0.9-0.1,2.1-0.3,3.6-0.6   c3-0.5,6.9-1.4,10.7-2.6c1.9-0.6,3.8-1.3,5.4-2.2c0.8-0.4,1.6-0.8,2.3-1.3c0.7-0.4,1.4-0.9,2-1.3c1.2-0.9,2.1-1.8,2.6-2.4   C155.6,97.3,155.8,96.9,155.8,96.9z M85.2,101.4c0.1,0.4,0.3,0.7,0.5,1.1c0.1,0.2,0.3,0.4,0.4,0.5c0.1,0.2,0.3,0.3,0.5,0.5   c0.7,0.6,1.6,1.2,2.6,1.7c0.5,0.3,1,0.5,1.5,0.7c0.5,0.2,1,0.4,1.5,0.6c1,0.4,1.9,0.7,2.7,0.9c0.8,0.2,1.5,0.4,1.9,0.6   c0.5,0.1,0.7,0.2,0.7,0.2s-0.3,0-0.8,0c-0.5,0-1.2-0.1-2-0.2c-0.4-0.1-0.9-0.1-1.3-0.3c-0.5-0.1-1-0.2-1.5-0.4   c-0.5-0.2-1-0.3-1.5-0.6c-0.5-0.2-1-0.5-1.5-0.7c-0.5-0.3-1-0.6-1.5-0.9c-0.5-0.3-0.9-0.7-1.3-1.1c-0.3-0.4-0.7-0.8-1-1.3   c-0.2-0.5-0.4-0.9-0.5-1.4c-0.1-0.9,0.1-1.6,0.3-2.1c0-0.1,0.1-0.1,0.1-0.2c0,0,0,0,0,0c0,0,0.1,0.1,0.1,0.1c0,0,0,0.1,0,0.1   C85,99.9,85,100.6,85.2,101.4z M88.7,96.2c-1.2-1.2-1.6-2.6-1.7-4c2.9,1.8,7.4,2.8,9.5,3.1c3,0.4,16.3,1.4,20.1-2.3   c-0.9,3-3.1,4.2-6.4,4.9c-4,0.8-8,1.2-12.1,1.1C95.2,98.8,91,98.4,88.7,96.2z M87.6,89.7c1.6,0.5,3.4,0.8,5.5,1.2   c6.2,1.1,12.6,1.6,19.1,1.6c0,0,0.1,0,0.1,0c-3.9,1-10.2,1.1-11.7,1C99.7,93.4,90,92.2,87.6,89.7z M115.9,99.4c2-0.9,3-2.4,3.5-4.1   c0.5,1,1.4,2,2.8,2.7c4.3,2.3,10.3,2.7,15,2.9c0.1,0,0.2,0,0.2,0c-4,1.7-8.8,3.7-12.1,4.5c-4.8,1.1-8.3,6.3-10,9.3   c-0.1,0.2-0.3,0.2-0.4,0.2c-0.1,0-0.3,0-0.3-0.2c-2.2-4.7-6.6-8.2-6.7-8.3l-8.9-4.4C104.3,102.1,111,101.6,115.9,99.4z M129.9,94   c6.3,1.7,13.5,2.3,19.8,0.4c1.2-0.4,2.9-1,4.4-1.9c-0.7,1.7-2.1,3-4.5,3.9c-4,1.4-8.2,1.7-12.4,1.5c-3.7-0.2-7.7-0.5-11.2-1.7   c-2.5-0.9-3.7-2.3-4.1-4.2c0.6-0.1,1.3-0.1,1.9-0.2C125.8,92.9,128.2,93.5,129.9,94z M128.4,91.3c6.8-0.9,13.7-2.3,20.4-4.3   c1.7-0.5,3.1-1,4.4-1.5c0.5,0.3,0.9,0.6,1.1,1c0.1,0.2,0.2,0.4,0.3,0.6c0,0.1,0,0.1,0,0.2c0.1,0.5,0.1,1,0.1,1.5   c-1.1,3.2-9.5,4.5-12,4.6c-3.9,0.2-7.8-0.3-11.6-1.3C130.5,91.8,129.5,91.6,128.4,91.3z M82.3,80.6c-0.7-1.2-0.9-6.3-0.5-7.6   l0.1-0.3l0-0.3c0-0.1,0.1-0.8,0.3-1.8c0.6,0,1.3,0.1,1.9,0.1c1.9,0.1,1.9-2.9,0-3c-0.3,0-0.7,0-1-0.1c1.1-3,3-6.9,6.7-10.6   c0.1,0,0.2,0.1,0.2,0.1c0.9,0.1,1.7,0.4,2.4,0.8c0.7,0.4,1.6,0.2,2.1-0.5c0.4-0.7,0.2-1.7-0.5-2.1c-0.5-0.3-1-0.5-1.5-0.7   c3.2-2.5,7.3-4.8,12.6-6.4c0.1,0.5,0.3,1,0.6,1.5c0.4,0.6,1.2,0.9,1.9,0.6c0.6-0.3,1.2-1.1,0.9-1.8c-0.1-0.2-0.2-0.4-0.2-0.6   c0-0.1-0.1-0.2-0.2-0.3c0-0.1,0-0.1,0-0.2c0,0.1,0,0.1,0,0c2-0.5,4.2-0.9,6.5-1.1c1.1-0.1,2.2-0.2,3.3-0.3   c-0.3,0.8-0.6,1.6-0.8,2.4c-0.3,0.8,0.3,1.6,1,1.8c0.8,0.2,1.6-0.3,1.8-1c0.4-1.1,0.8-2.2,1.1-3.3c0.2,0,0.5,0,0.8,0   c3.9,0,7.6,0.4,10.9,1.2c-0.1,0.1-0.2,0.3-0.2,0.4c-0.1,0.2-0.1,0.3-0.2,0.5c-0.2,0.3-0.3,0.6-0.4,0.9c-0.3,0.7-0.2,1.6,0.5,2.1   c0.6,0.4,1.7,0.2,2.1-0.5c0.4-0.8,0.9-1.6,1.3-2.4c3.1,1,5.9,2.5,8.3,4.3c-0.3,0.2-0.5,0.5-0.6,0.9c-0.3,1.6-0.7,3.2-1,4.8   c-0.4,1.9,2.5,2.7,2.9,0.8c0.3-1.5,0.6-3.1,0.9-4.6c9.3,8.6,9.8,21.1,9.8,21.3l0,0.3l0.1,0.3c0.2,0.5,0.1,0.9-0.1,1.4   c-0.5,0.9-2.2,2.7-8.6,4.6c-18,5.3-36.5,6.6-53.5,3.7C87,84.7,84.6,83.6,82.3,80.6z M84.8,111.4c2.9,2.9,6.8,4.8,10.7,5.7   c17.8,4,42.5,2,53.7-4.4c3.8-2.2,7-5,8.7-8.6c0.4-0.8,0.6-1.6,0.7-2.4c1.2,0.1,1.9,1.6,1.2,2.6l0,0c-0.1,0.4-0.6,0.9-0.7,1.3   c-0.5,2.2,2,3.8,0.9,5.9c-1.1,2.3-6,3.1-8.3,3.4c-1.7,0.2-3.6,0-4.9,1.2c-1.6,1.4-0.6,2.4-1.2,4.1c-1,2.9-5,2.5-7.6,2.3   c-4.1-0.4-8-2.7-12.2-1.2c-1.2,0.4-2,1-2.9,1.8c-0.6,0.4-1.7,2.9-3.2,3.3c-3,0.8-2.7-2.5-4.7-3.3c-1.8-0.7-4,0.8-5.5,1.6   c-1.5,0.8-2.9,2.5-4.3,0.5c-0.3-0.4,0.1-1.7-0.2-2.3c-0.8-1.6-2.5-1.8-4.1-1.7c-0.7,0-1.3,0.3-1.9,0.5c-1.1,0.9-2.3,1.2-3.4,1.2   c-1.7-0.1-3.2-1.4-3.7-3.1c-0.3-1.1-1-2.4-2.1-2.8c-1.3-0.5-3.4,0.6-4.5,0C81.4,114.6,83,112.8,84.8,111.4z M156.3,117   c0,0.2,0,0.3-0.1,0.4c-1.2,2.7-3.5,4.5-7.5,6c-0.9,0.3-1.8,0.6-2.7,0.9c1.3-0.8,2.1-2.1,2.5-4.2c0.7-3.2,3.7-2.1,6.3-2.8   C155.4,117.3,155.8,117.2,156.3,117z M143.1,125.3c-7.9,2.5-15.7,4.1-23.2,4.7c2.4-1.1,4.3-4.9,6.7-5.9c2.9-1.2,5.8,0.3,8.7,0.9   c2.2,0.5,4.6,0.6,6.9,0.4C142.5,125.4,142.8,125.4,143.1,125.3z M117.6,130.2c-7.5,0.4-14.6-0.1-21.3-1.6c-5.6-1.3-9-3.1-10.9-5.8   c-0.7-0.9-1.2-2.2-1.5-3.3c2.1,0.1,4.2,0,5.3,1.5c1.1,1.5,0.3,3.1,2.5,4.3c2.7,1.4,4.4-0.3,7-0.5c4.3-0.3,2.3,1.4,4.2,3.3   c1.5,1.5,3.9,1,5.6,0.3c1.1-0.5,2.4-1.9,3.5-2c2.2-0.3,2.4,1.2,3.5,2.3C116.3,129.6,117,130,117.6,130.2z M78.8,117.5   c-0.4,2.8,1.1,6.3,2.3,8.1c-0.8-0.5-1.6-0.9-2.4-1.9c-1.6-1.8-2.8-2.2-4.9-3.8c-1.4-1.1-1.8-1-3.5-1.7c-2-0.8-3.6-2.7-5.6-3.6   c-1.6-0.7-2.4-2-3.5-2.9c0.1,0,0.2,0,0.3-0.1c1.8-0.5,3.4-1.4,5.3-1.6c1.4-0.2,2.2,0.4,3.6-0.2c2.4-1,2.5-3.4,5.4-3.1   c2.1,0.2,4.3,1.6,6.3,2.3c0.2,0.1,0.5,0.1,0.8,0c0,0,0.1,0.1,0.1,0.1C80.2,111.4,76.4,114.4,78.8,117.5z M72.4,124.2   c-1-0.9-1.9-1.9-3-2.7c0.4,0.1,0.8,0.2,1,0.3c1.7,0.7,1.3,1.1,2.5,1.7c1.5,0.9,2.3,1.5,3.5,2.6c0.8,0.7,1.4,1.4,2.2,2.1   c1.2,1.1,1.7-0.4,0.8,1.5c-0.4,0.8-1.6,1.3-2.6,1.8c-0.1,0-0.3,0-0.4,0c-1.5,0.1-2.6-0.5-3.8-1.3C73.9,128.2,74.6,126.3,72.4,124.2   z M53.6,103.8c0.3,0.3,0.8,0.5,1.2,0.5c1.8,0.8,3.6,1.9,5.6,0.5c1-0.7,1.3-2.1,2.5-2.4c1.3-0.3,2.8,1.3,4.3,0.9   c1.3-0.3,1.9-1.6,3-2.1c1.5-0.8,2,0.3,3.5,0.4c0.9,0.1,2.8-1.1,3.5-0.8c0.7,0.3,1.6,2.1,2.4,3.9c-2.3-1-4.8-1.9-6.9-1   c-0.6,0.3-1,0.8-1.6,1.2c-0.3,0.3-0.5,0.6-0.8,1c-1.7,1-3.4,1.4-5.2,1.1c-3.3,0.6-6,2.5-9.5,1.5c-0.2-0.1-0.4-0.1-0.6,0   c-1.6-1.5-4-1.4-5.4-2.9c-0.2-0.2-0.3-0.4-0.4-0.6C50.9,103.4,52.3,103.3,53.6,103.8z M53.3,99.1C53.3,99.1,53.3,99.1,53.3,99.1   c1.4-0.8,2.6-1.7,3.9-2.4c0.3,0.3,0.7,0.6,1.2,0.8c0.8,0.3,1.9,0.2,2.7,0.7c0.3,0.2,0.5,0.6,0.7,1c-2.1,0.6-2,2.9-4.9,2.2   c-0.8-0.2-1.4-0.5-2-0.8C54.4,100.1,53.8,99.6,53.3,99.1z M71.1,91.7c1.6,0.1,1.6-0.4,3.1,0.9c0.5,0.4,0.8,0.9,1.3,1.2   c1.3,0.9,2.6,1,4.1,0.9c1.6-0.1,1.5-0.1,2.5,0.9c0.7,0.6,1.3,1.4,1.8,2.2c-1.1,1-1.8,2.2-2.3,3.5c-1-2-2.3-3.7-3.9-4   c-0.6-0.1-1,0.2-1.6,0.3c-1.6,0.1-2.2-0.2-3.5-0.4c-1.1-0.2-1.5-0.4-2.1-0.1c-2.1-1.5-4.9-2-7.3-1c-0.1-0.1-0.2-0.2-0.3-0.2   c-0.5-0.3-1-0.5-1.6-0.6c-0.1,0-0.2,0-0.4-0.1c2.7-0.9,5.5-2.1,7.7-4.1C69.3,91.5,70,91.7,71.1,91.7z M39.2,87.4   C37.9,87,38,86.1,37,85.3c-0.3-0.3-3.2-1.5-3.4-1c0,0,0-0.1,0-0.1c0.6-0.7,1.7-2.2,2.3-2.3c1.5-0.2,1.4,0.9,2.3,1.5   c1.3,1,2.3,0.7,3.8,1c1.9,0.4,2.1,2.2,3.6,3.2c0.5,0.3,1,0.5,1.5,0.7c0.1,0,0.2,0.1,0.3,0.1c-0.3,0.3-0.7,0.7-1.2,1.3   c-0.9,1.1-1.6,1.4-2.6,1.7c-0.5-0.8-0.7-2.2-1.4-2.9C41.3,87.9,40.3,87.8,39.2,87.4z M41,97.6c0.8-1.1,1.9-2.1,3.1-2.8   c0.6,0,1.2-0.1,1.7-0.3c1.8-1,3-3.7,4.8-4.2c2-0.5,3.4,0.4,5.3-1.1c1-0.8,1.3-2.5,2.6-3.1c1.2-0.6,3.2,0,4.6-0.5   c2-0.7,4.2-4.9,5.1-0.5c0.7,3.2-4.6,6.1-6.8,6.9c-1.7,0.6-3.4,0.5-5.1,1.3c-2.9,1.4-5.6,3.4-8.6,4.9c-1.6,0.8-2.5,1.8-2.9,3.3   c-0.5-0.2-1-0.4-1.5-0.8c-0.7-0.7-0.5-1.4-1.5-2c-0.4-0.3-0.9-0.3-1.4-0.4C40.7,98,40.8,97.8,41,97.6z M23.2,96.6   c0,0,0.1-0.1,0.1-0.1c0.7-1.1,1.1-2.5,2.3-2.5c1.2,0,2.6,1.9,3.8,2.3c2.3,0.7,2.4-0.2,4.3,1.8c1.2,1.1,2,2.6,3.7,3   c1.1,0.3,1.7-0.2,2.7,0.5c0.8,0.5,0.7,1.2,1.3,1.8c1.3,1.3,2.5,1.2,4.1,2.1c1.6,0.9,2.1,2.5,3.8,3.4c0.6,0.3,1.5,0.3,2.1,0.6   c1.3,0.7,1.2,1.7,2,2.7c0.9,1,1.4,1.1,2.7,1.5c1,0.3,1.4,0,2.5,0.6c1.1,0.6,1,1.2,1.9,1.8c1.3,1,2.5,1,3.9,1.8   c0.9,0.6,1.4,1.5,2.1,2.2c-0.5-0.2-1.1-0.3-1.6-0.7c-0.7-0.4-1-1-1.9-1.2c-0.7-0.2-1.4,0-2.1-0.1c-2.7-0.5-2-1.2-3.7-2   c-1.9-0.8-3.5-0.4-5.2-1.7c-1.6-1.2-1.9-1.7-3.9-1.9c-0.1,0-0.3,0-0.4,0.1c-1.7,0.5-2.7,0-3-1.4c-0.5-0.3-0.8-0.8-1.4-1.2   c-0.6-0.3-1.2-0.2-1.8-0.4c-1.5-0.5-2.4-0.7-3.7-1.7c-1.6-1.2-1.8-1.5-3.8-1.8c-0.1,0-0.1,0-0.2,0c0,0,0,0,0,0   c-1.4-2.6-3.6-4.2-6-5.6c-1-0.6-2-1.5-2.9-2.2C24.5,97.7,23.7,97.1,23.2,96.6z M13.6,106.2c0.2-0.6,0.7-2.8,1.2-3   c0.4-0.2,3,0.8,3.7,0.9c2.9,0.3,5.1,2.1,8.1,2.4c2.1,0.3,2.2,1.2,3.9,2.2c0.9,0.6,1.7,0.3,2.7,0.5c2.9,0.7,2.6,1.7,4.6,2.7   c0.7,0.4,1.4,0.3,2.1,0.5c1.7,0.6,2.2,1.4,3.5,2.4c0.7,0.5,1.2,0.9,2.1,1.1c0.6,0.2,1.2-0.2,1.8-0.2c1.7,0.1,2.4,1.1,3.6,1.8   c1.5,0.8,2.7,0.9,4.3,1.6c1.2,0.5,1.9,1.5,3,2c1.9,0.8,4.1,0.8,6,1.6c0.8,0.3,2.3,0.5,3,0.8c0.7,0.4,2.3,2.1,2.7,2.7   c1.1,1.5,0.5,2.3-0.6,3.8c-1.7-0.1-2.4-1.6-3.9-2.3c-0.9-0.4-1.9-0.5-2.8-0.8c-1.7-0.5-3.3-0.6-4.7-1.9c-1.3-1.2-0.8-1.7-2.5-2.4   c-0.6-0.3-1.3-0.3-2-0.4c-2.1-0.4-3.7-1.2-5.7-2.3c-2-1.1-4.9-0.8-6.6-2c-1.2-0.8-1.7-1.9-3.2-2.6c-0.6-0.1-1.1-0.1-1.7,0   c-1.8,0.1-3.2-0.5-4.1-1.8c-0.9-0.6-1.1-1.2-2.1-1.7c-1-0.5-1.7-0.4-2.6-0.6c-1-0.2-1.8-0.5-2.7-0.9c-0.1-0.1-0.3-0.1-0.4-0.2   c-0.8-0.4-1.6-0.8-2.5-1.2C19.2,108,15.3,108,13.6,106.2C13.6,106.2,13.6,106.2,13.6,106.2z M29.3,116c-1.6,0.6-3.4,0.6-5.1,1.1   c-0.8,0.2-1.5,0.6-2.2,1c-0.8,0.5-1.7,1.9-2.7,2c-0.3,0-0.6,0.1-0.8,0.3c-2-0.3-4.3-0.8-5.9,0.3c-0.5-0.6-0.9-1.1-1.2-1.8   c2.2-0.6,4.1-1.4,5.7-3.3c1.3-1.5,2.2-1.9,4.2-1.8c0.5,0,1,0,1.5-0.1c0.4,0.3,0.9,0.5,1.5,0.6C26.2,114.7,27.7,115.1,29.3,116z    M19.5,129.8c-8.1-3.4-12.7-7.2-12.7-10.8c0-2.4,2.3-6.1,7.2-8.8c0.4,0.2,0.9,0.4,1.4,0.5c0.6,0.1,1.3,0.1,1.9,0.1   c0.2,0.1,0.4,0.1,0.6,0.2c-0.6,0.2-1.1,0.5-1.6,0.9c-0.9,0.7-1.4,1.7-2.2,2.5c-1.4,1.3-3.4,1.6-5.2,2c-0.8,0.2-1.3,1.1-1,1.8   c0.7,2.3,1.9,4.2,3.7,5.8c0.7,0.6,1.9,0.6,2.4-0.3c0.8-1.7,4.1-0.4,5.6-0.2c0.7,0.1,1.2-0.3,1.4-0.9c1.4-0.7,2.4-2.1,4.1-2.7   c2.4-0.8,4.8-0.5,7-2c0,0,0,0,0.1-0.1c0.3,0.2,0.6,0.4,0.9,0.5c2.1,0.7,3.2-0.4,5.3,1.2c0.7,0.5,0.9,1.4,1.7,1.9   c0.2,0.1,0.4,0.2,0.6,0.3c-2,0.3-3.6,0.4-5.9,0.2c-1.3-0.1-2.3-0.1-3.6,0.2c-2.6,0.5-4.4,0.4-7,0.3   C18.8,122.3,17.4,126.2,19.5,129.8z M21.5,127.1c0.5-2,4.7-0.9,6.1-1c1.4-0.1,2.7-0.8,4.2-1c1.8-0.2,3.6,0.7,5.3,0.7   c1.9,0,6.9-1.5,10-1.8c0.4,0.4,0.8,0.9,1.7,1.2c2.4,0.8,3.9-0.5,6.4,1.5c0.4,0.3,0.7,0.6,0.9,0.8c-2.7,0.7-5.1,0.1-8,0.7   c-2.7,0.5-4.5,1-7.4,0.5c-2-0.3-3.1,0.2-5,0.5c-3.1,0.6-5.6-1.1-8.6-0.6c-0.8,0.1-1.6,0.8-2.4,0.8   C23.9,129.4,21.2,128.5,21.5,127.1z M177.2,118.9c-0.3,8.8-33.6,21.6-85.2,21.6c-27.8,0-50.9-3.5-66-8.3c3.7-0.6,6.7,0.7,10.4-0.1   c4-0.9,7.5,0.4,11.6-0.6c3.9-1,7.3-0.3,11.1-2c0.5,0.1,1,0.3,1.6,0.4c3.2,0.5,5.4,3.3,8.6,3.3c0.6,0.2,1.3,0.2,1.7-0.4   c1.5,1.1,3.2,1.9,5,1.8c0.4,0.3,1,0.5,1.6,0c1.8-1.3,6.3-3.5,5.6-6.6c3.6,3.3,8.3,4.7,11.9,5.5c5.6,1.3,11.4,1.9,17.5,1.9   c12,0,24.8-2.4,37.8-7.3c5.2-1.9,8.5-4.6,10.3-8.6c0.6-1.4,0.7-3.5,0.3-5c0.1,0,0.1-0.1,0.2-0.1c1.4-1.1,2.6-2.6,2.4-4.4   c-0.2-1.3-1.5-2.6-1.3-3.9C175.4,108.5,177.4,111.9,177.2,118.9z"></path><path d="M115.3,59.5c1.1,0.3,2.2,0.6,3.3,0.9c1.9,0.6,2.6-2.3,0.8-2.9c-1.1-0.3-2.2-0.6-3.3-0.9C114.3,56.1,113.5,59,115.3,59.5z"></path><path d="M123.4,56.7c-0.6,0.6-0.5,1.5,0,2.1c0.3,0.4,0.7,0.8,1,1.1c0.1,0.1,0.1,0.2,0.2,0.2c0,0,0,0,0,0c0,0,0,0,0,0   c0.2,0.2,0.4,0.5,0.5,0.8c0.4,0.7,1.3,1,2.1,0.5c0.7-0.4,1-1.4,0.5-2.1c-0.7-1-1.4-1.9-2.2-2.8C125,56.1,124,56.1,123.4,56.7z"></path><path d="M133.6,64.8c-0.1,0.1-0.1,0.2-0.2,0.3c-0.4,0.5-0.8,1.1-1.2,1.6c-0.5,0.7-0.1,1.7,0.5,2.1c0.8,0.4,1.6,0.1,2.1-0.5   c0.1-0.2,0.3-0.4,0.4-0.6c0-0.1,0.3-0.4,0.2-0.3c0.1-0.1,0.1-0.2,0.2-0.3c0.4-0.5,0.8-1.1,1.2-1.6c0.5-0.7,0.1-1.7-0.5-2.1   c-0.8-0.4-1.6-0.1-2.1,0.5c-0.1,0.2-0.3,0.4-0.4,0.6C133.7,64.6,133.5,64.9,133.6,64.8z"></path><path d="M128.5,56.2c1,0.4,1.8,1,2.6,1.7c0.6,0.5,1.5,0.6,2.1,0c0.5-0.5,0.6-1.6,0-2.1c-1-0.9-2.1-1.6-3.2-2.2   c-0.7-0.3-1.6-0.2-2.1,0.5C127.6,54.8,127.8,55.9,128.5,56.2z"></path><path d="M138.7,60.7c0.9,0,1.4-0.7,1.5-1.5c0.1-1.1,0.2-2.2,0.3-3.2c0.1-0.8-0.7-1.5-1.5-1.5c-0.9,0-1.4,0.7-1.5,1.5   c-0.1,1.1-0.2,2.2-0.3,3.2C137.1,60.1,138,60.7,138.7,60.7z"></path><path d="M113.7,53.6c0.3,0.8,1,1.3,1.8,1c0.7-0.2,1.3-1.1,1-1.8c-0.4-1-1.1-2-1.4-3c-0.3-0.8-1-1.3-1.8-1c-0.7,0.2-1.3,1.1-1,1.8   C112.7,51.7,113.4,52.6,113.7,53.6z"></path><path d="M120.9,54.2c0.7,0.4,1.6,0.1,2.1-0.5c0.6-0.9,1.2-1.8,1.8-2.7c0.5-0.7,0.1-1.7-0.5-2.1c-0.7-0.4-1.6-0.1-2.1,0.5   c-0.6,0.9-1.2,1.8-1.8,2.7C119.9,52.8,120.3,53.8,120.9,54.2z"></path><path d="M98.2,60.2c1-0.1,2.1,0,3.1,0.2c0.8,0.2,1.6-0.2,1.8-1c0.2-0.7-0.2-1.7-1-1.8c-1.3-0.3-2.6-0.4-3.9-0.3   c-0.8,0-1.5,0.7-1.5,1.5C96.8,59.5,97.4,60.3,98.2,60.2z"></path><path d="M107.8,60.2c-0.1,0.8,0.7,1.5,1.5,1.5c0.9,0,1.4-0.7,1.5-1.5c0.1-1,0-2-0.1-3c-0.1-0.8-0.6-1.5-1.5-1.5   c-0.7,0-1.6,0.7-1.5,1.5C107.7,58.3,107.8,59.2,107.8,60.2z"></path><path d="M101.6,54.2c1.2,0.2,2.3,0.3,3.5,0.5c0.8,0.1,1.6-0.2,1.8-1c0.2-0.7-0.2-1.7-1-1.8c-1.2-0.2-2.3-0.3-3.5-0.5   c-0.8-0.1-1.6,0.2-1.8,1C100.4,53.1,100.8,54.1,101.6,54.2z"></path><path d="M92.2,66.9c0.6-1.2,1.3-2.3,2.2-3.2c1.3-1.4-0.8-3.5-2.1-2.1c-1.1,1.1-2,2.4-2.6,3.8c-0.3,0.7-0.2,1.6,0.5,2.1   C90.8,67.8,91.9,67.7,92.2,66.9z"></path><path d="M102,63.4c-0.7-0.3-1.5-0.5-2.3-0.8c-0.8-0.3-1.6,0.3-1.8,1c-0.2,0.9,0.3,1.5,1,1.8c0.7,0.3,1.3,0.5,2,0.7   c0.1,0,0.2,0.1,0.3,0.1c0,0,0,0,0,0c0,0,0,0,0,0c0.2,0.1,0.5,0.3,0.6,0.4c0.6,0.5,1.5,0.6,2.1,0c0.5-0.5,0.6-1.6,0-2.1   C103.4,64.1,102.8,63.7,102,63.4z"></path><path d="M110.5,64.4c-0.6,0.8-1.3,1.6-2,2.3c-0.6,0.6-0.6,1.5,0,2.1c0.6,0.6,1.6,0.6,2.1,0c0.9-0.9,1.7-1.9,2.5-2.9   c0.5-0.7,0.1-1.7-0.5-2.1C111.8,63.4,111,63.7,110.5,64.4z"></path><path d="M144,65.5c1.2,0.3,2.4,0.3,3.7,0.2c0.8-0.1,1.5-0.6,1.5-1.5c0-0.7-0.7-1.6-1.5-1.5c-1,0.1-1.9,0.1-2.9-0.1   c-0.8-0.2-1.6,0.2-1.8,1C142.7,64.4,143.2,65.3,144,65.5z"></path><path d="M118.8,63.5c-0.3-0.7-1.4-0.9-2.1-0.5c-0.8,0.4-0.9,1.3-0.5,2.1c0.5,1.2,1.1,2.4,1.6,3.5c0.3,0.7,1.4,0.9,2.1,0.5   c0.8-0.4,0.9-1.3,0.5-2.1C119.9,65.9,119.4,64.7,118.8,63.5z"></path><path d="M127.9,63.6c-1.4,0.4-2.6,1-3.8,1.9c-0.6,0.5-0.5,1.6,0,2.1c0.6,0.6,1.5,0.5,2.1,0c0.3-0.2,0.6-0.4,0.9-0.6   c0.1,0,0.2,0,0.4-0.1c0.4-0.2,0.8-0.3,1.2-0.5c0.7-0.3,1.3-1,1-1.8C129.5,63.8,128.7,63.4,127.9,63.6z"></path><path d="M96.1,70.1c-0.2-0.7-1.1-1.3-1.8-1c-0.5,0.2-1,0.4-1.6,0.5c-0.8,0.3-1.3,1-1,1.8c0.2,0.7,1.1,1.3,1.8,1   c0.5-0.2,1-0.4,1.6-0.5C95.8,71.6,96.3,70.9,96.1,70.1z"></path></g></svg>